<?xml version="1.0" encoding="UTF-8" standalone="no"?>
<!-- Generator: Adobe Illustrator 19.0.0, SVG Export Plug-In . SVG Version: 6.00 Build 0)  -->

<svg
   xmlns:dc="http://purl.org/dc/elements/1.1/"
   xmlns:cc="http://creativecommons.org/ns#"
   xmlns:rdf="http://www.w3.org/1999/02/22-rdf-syntax-ns#"
   xmlns:svg="http://www.w3.org/2000/svg"
   xmlns="http://www.w3.org/2000/svg"
   xmlns:sodipodi="http://sodipodi.sourceforge.net/DTD/sodipodi-0.dtd"
   xmlns:inkscape="http://www.inkscape.org/namespaces/inkscape"
   version="1.1"
   id="Layer_1"
   x="0px"
   y="0px"
   viewBox="0 0 791 115"
   style="enable-background:new 0 0 791 115;"
   xml:space="preserve"
   inkscape:version="0.91 r13725"
   sodipodi:docname="HackBulgaria_logo.svg"><metadata
     id="metadata3402"><rdf:RDF><cc:Work
         rdf:about=""><dc:format>image/svg+xml</dc:format><dc:type
           rdf:resource="http://purl.org/dc/dcmitype/StillImage" /><dc:title></dc:title></cc:Work></rdf:RDF></metadata><defs
     id="defs3400" /><sodipodi:namedview
     pagecolor="#ffffff"
     bordercolor="#666666"
     borderopacity="1"
     objecttolerance="10"
     gridtolerance="10"
     guidetolerance="10"
     inkscape:pageopacity="0"
     inkscape:pageshadow="2"
     inkscape:window-width="1123"
     inkscape:window-height="480"
     id="namedview3398"
     showgrid="false"
     inkscape:zoom="0.46144121"
     inkscape:cx="395.5"
     inkscape:cy="57.5"
     inkscape:window-x="398"
     inkscape:window-y="108"
     inkscape:window-maximized="0"
     inkscape:current-layer="Layer_1" /><style
     type="text/css"
     id="style3362">
	.st0{fill:#848484;}
	.st1{fill:#F7931E;}
</style><g
     id="g3364"><g
       id="g3366"><polygon
         class="st0"
         points="50,33 15,33 15,0 0,0 0,83 15,83 15,50 50,50 50,83 65,83 65,0 50,0   "
         id="polygon3368" /><path
         class="st0"
         d="M133,33H83v50h65V65h-15V33z M100,65V50h15v15H100z"
         id="path3370" /><polygon
         class="st0"
         points="163,33 163,83 213,83 213,65 181,65 181,50 213,50 213,33   "
         id="polygon3372" /><polygon
         class="st0"
         points="248,0 231,0 231,83 248,83 248,65 265,65 265,50 248,50   "
         id="polygon3374" /><rect
         x="265"
         y="33"
         class="st0"
         width="15"
         height="17"
         id="rect3376" /><rect
         x="265"
         y="65"
         class="st0"
         width="15"
         height="18"
         id="rect3378" /><path
         class="st1"
         d="M363,0h-50v83h65V33h-15V0z M363,65h-15.4H328V50h19.6H363V65z M328,33V17h18v16H328z"
         id="path3380" /><polygon
         class="st1"
         points="428,65 413,65 413,33 396,33 396,83 446,83 446,33 428,33   "
         id="polygon3382" /><polygon
         class="st1"
         points="446,0 446,17 463,17 463,83 478,83 478,0   "
         id="polygon3384" /><path
         class="st1"
         d="M494,33v50h32v15h-32v17h50V33H494z M526,65h-15V50h15V65z"
         id="path3386" /><path
         class="st1"
         d="M611,33h-50v50h67V65h-17V33z M578,65V50h16v15H578z"
         id="path3388" /><polygon
         class="st1"
         points="644,33 644,83 659,83 659,50 676,50 676,33   "
         id="polygon3390" /><rect
         x="692"
         class="st1"
         width="17"
         height="17"
         id="rect3392" /><rect
         x="692"
         y="33"
         class="st1"
         width="17"
         height="50"
         id="rect3394" /><path
         class="st1"
         d="M776,65V33h-50v50h65V65H776z M741,65V50h18v15H741z"
         id="path3396" /></g></g></svg>