<?xml version="1.0" encoding="UTF-8" standalone="no"?>
<!-- Generator: Adobe Illustrator 19.0.0, SVG Export Plug-In . SVG Version: 6.00 Build 0)  -->

<svg
   xmlns:dc="http://purl.org/dc/elements/1.1/"
   xmlns:cc="http://creativecommons.org/ns#"
   xmlns:rdf="http://www.w3.org/1999/02/22-rdf-syntax-ns#"
   xmlns:svg="http://www.w3.org/2000/svg"
   xmlns="http://www.w3.org/2000/svg"
   xmlns:sodipodi="http://sodipodi.sourceforge.net/DTD/sodipodi-0.dtd"
   xmlns:inkscape="http://www.inkscape.org/namespaces/inkscape"
   version="1.1"
   id="Layer_1"
   x="0px"
   y="0px"
   viewBox="0 0 761.1 133.9"
   style="enable-background:new 0 0 761.1 133.9;"
   xml:space="preserve"
   inkscape:version="0.91 r13725"
   sodipodi:docname="HackSoft_logo.svg"><metadata
     id="metadata3359"><rdf:RDF><cc:Work
         rdf:about=""><dc:format>image/svg+xml</dc:format><dc:type
           rdf:resource="http://purl.org/dc/dcmitype/StillImage" /><dc:title></dc:title></cc:Work></rdf:RDF></metadata><defs
     id="defs3357" /><sodipodi:namedview
     pagecolor="#ffffff"
     bordercolor="#666666"
     borderopacity="1"
     objecttolerance="10"
     gridtolerance="10"
     guidetolerance="10"
     inkscape:pageopacity="0"
     inkscape:pageshadow="2"
     inkscape:window-width="1366"
     inkscape:window-height="716"
     id="namedview3355"
     showgrid="false"
     inkscape:zoom="1.1299435"
     inkscape:cx="380.54999"
     inkscape:cy="66.949997"
     inkscape:window-x="-8"
     inkscape:window-y="-8"
     inkscape:window-maximized="1"
     inkscape:current-layer="Layer_1" /><style
     type="text/css"
     id="style3337">
	.st0{fill:#F79822;}
	.st1{fill:#A2A1A0;}
</style><g
     id="XMLID_1_"><polygon
       id="XMLID_21_"
       class="st0"
       points="544.7,36.2 544.7,0.6 474.3,0.6 474.3,23.4 447.6,23.4 447.6,81.6 515.8,81.7    515.8,111.7 473.3,111.2 473.4,100.1 447.6,100.1 447.6,133.3 544.7,133.3 544.7,59.6 474.7,59.6 474.7,23.9 517.7,23.9    517.5,36.2  " /><g
       id="XMLID_12_"><polygon
         id="XMLID_20_"
         class="st1"
         points="69.9,55.3 26.2,55.3 26.2,0 0,0 0,133.9 26.2,133.9 26.2,81.5 69.9,81.5 69.9,133.9     99,133.9 99,0 69.9,0   " /><path
         id="XMLID_17_"
         class="st1"
         d="M203.8,55.3h-81.5v78.6h104.8v-29.1h-23.3V55.3z M148.5,104.8V81.5h29.1v23.3H148.5z" /><polygon
         id="XMLID_16_"
         class="st1"
         points="244.5,55.3 244.5,133.9 326,133.9 326,104.8 270.7,104.8 270.7,81.5 326,81.5     326,55.3   " /><polygon
         id="XMLID_15_"
         class="st1"
         points="378.4,0 349.3,0 349.3,133.9 378.4,133.9 378.4,104.8 404.6,104.8 404.6,81.5     378.4,81.5   " /><rect
         id="XMLID_14_"
         x="404.6"
         y="55.3"
         class="st1"
         width="26.2"
         height="26.2" /><rect
         id="XMLID_13_"
         x="404.6"
         y="104.8"
         class="st1"
         width="26.2"
         height="29.1" /></g><g
       id="XMLID_9_"><polygon
         id="XMLID_11_"
         class="st0"
         points="584.4,81.3 561.2,81.3 561.2,133.9 619.8,133.9 619.1,111.6 584.4,111.6   " /><polygon
         id="XMLID_10_"
         class="st0"
         points="641,58.8 584.4,58.8 584.4,81.3 619.1,81.3 619.1,111.6 641,111.6   " /></g><g
       id="XMLID_6_"><polygon
         id="XMLID_8_"
         class="st0"
         points="657.1,19.5 657.1,133.9 681.8,133.9 681.8,72.3 704.7,72.3 704.7,46.2 681.8,46.2     681.8,19.5   " /><rect
         id="XMLID_7_"
         x="681.8"
         y="-0.1"
         class="st0"
         width="22.9"
         height="19.7" /></g><polygon
       id="XMLID_5_"
       class="st0"
       points="738,70.4 761.1,70.4 760.6,46.2 736.8,46.2 736.8,22.7 715,22.7 715,113.5 738,113.5    738,133.9 760.6,133.9 760.6,110.9 738,110.9  " /></g></svg>